<svg width="97" height="22" viewBox="0 0 97 22" fill="none" xmlns="http://www.w3.org/2000/svg">
<path d="M80.6456 18.8395C79.5256 18.8395 78.4857 18.6715 77.5257 18.3355C76.5817 17.9835 75.8457 17.5435 75.3177 17.0155C75.0777 16.7595 74.9736 16.4715 75.0056 16.1515C75.0536 15.8155 75.2137 15.5435 75.4857 15.3355C75.8057 15.0795 76.1176 14.9755 76.4216 15.0235C76.7416 15.0555 77.0136 15.1915 77.2376 15.4315C77.5096 15.7355 77.9416 16.0235 78.5336 16.2955C79.1416 16.5515 79.8137 16.6795 80.5497 16.6795C81.4777 16.6795 82.1817 16.5275 82.6617 16.2235C83.1577 15.9195 83.4137 15.5275 83.4297 15.0475C83.4457 14.5675 83.2137 14.1515 82.7337 13.7995C82.2697 13.4475 81.4137 13.1595 80.1657 12.9355C78.5497 12.6155 77.3737 12.1355 76.6377 11.4955C75.9177 10.8555 75.5576 10.0715 75.5576 9.14353C75.5576 8.32753 75.7977 7.65553 76.2777 7.12753C76.7577 6.58353 77.3736 6.18353 78.1256 5.92753C78.8776 5.65553 79.6616 5.51953 80.4776 5.51953C81.5336 5.51953 82.4697 5.68753 83.2857 6.02353C84.1017 6.35953 84.7497 6.82353 85.2297 7.41553C85.4537 7.67153 85.5576 7.94353 85.5416 8.23153C85.5257 8.50353 85.3897 8.73553 85.1337 8.92753C84.8777 9.10353 84.5737 9.15953 84.2217 9.09553C83.8696 9.03153 83.5736 8.88753 83.3336 8.66353C82.9336 8.27953 82.5017 8.01553 82.0377 7.87153C81.5737 7.72753 81.0377 7.65553 80.4297 7.65553C79.7257 7.65553 79.1256 7.77553 78.6296 8.01553C78.1496 8.25553 77.9096 8.60753 77.9096 9.07153C77.9096 9.35953 77.9816 9.62353 78.1256 9.86353C78.2856 10.0875 78.5897 10.2955 79.0377 10.4875C79.4857 10.6635 80.1416 10.8395 81.0056 11.0155C82.2056 11.2555 83.1496 11.5595 83.8376 11.9275C84.5416 12.2955 85.0456 12.7275 85.3496 13.2235C85.6536 13.7035 85.8056 14.2635 85.8056 14.9035C85.8056 15.6395 85.6057 16.3035 85.2057 16.8955C84.8217 17.4875 84.2456 17.9595 83.4776 18.3115C82.7256 18.6635 81.7816 18.8395 80.6456 18.8395Z" fill="#23211C"/>
<path d="M67.84 18.8395C66.512 18.8395 65.328 18.5595 64.288 17.9995C63.264 17.4235 62.456 16.6395 61.864 15.6475C61.288 14.6395 61 13.4875 61 12.1915C61 10.8795 61.272 9.72753 61.816 8.73553C62.376 7.72753 63.144 6.94353 64.12 6.38353C65.096 5.80753 66.216 5.51953 67.48 5.51953C68.728 5.51953 69.8 5.79953 70.696 6.35953C71.592 6.90353 72.272 7.66353 72.736 8.63953C73.216 9.59953 73.456 10.7115 73.456 11.9755C73.456 12.2795 73.352 12.5355 73.144 12.7435C72.936 12.9355 72.672 13.0315 72.352 13.0315H62.68V11.1115H72.28L71.296 11.7835C71.28 10.9835 71.12 10.2715 70.816 9.64753C70.512 9.00753 70.08 8.50353 69.52 8.13553C68.96 7.76753 68.28 7.58353 67.48 7.58353C66.568 7.58353 65.784 7.78353 65.128 8.18353C64.488 8.58353 64 9.13553 63.664 9.83953C63.328 10.5275 63.16 11.3115 63.16 12.1915C63.16 13.0715 63.36 13.8555 63.76 14.5435C64.16 15.2315 64.712 15.7755 65.416 16.1755C66.12 16.5755 66.928 16.7755 67.84 16.7755C68.336 16.7755 68.84 16.6875 69.352 16.5115C69.88 16.3195 70.304 16.1035 70.624 15.8635C70.864 15.6875 71.12 15.5995 71.392 15.5995C71.68 15.5835 71.928 15.6635 72.136 15.8395C72.408 16.0795 72.552 16.3435 72.568 16.6315C72.584 16.9195 72.456 17.1675 72.184 17.3755C71.64 17.8075 70.96 18.1595 70.144 18.4315C69.344 18.7035 68.576 18.8395 67.84 18.8395Z" fill="#23211C"/>
<path d="M59.6 18.744C58.896 18.744 58.272 18.552 57.728 18.168C57.184 17.784 56.76 17.264 56.456 16.608C56.152 15.936 56 15.168 56 14.304V1.2C56 0.848 56.112 0.56 56.336 0.336C56.56 0.112 56.848 0 57.2 0C57.552 0 57.84 0.112 58.064 0.336C58.288 0.56 58.4 0.848 58.4 1.2V14.304C58.4 14.896 58.512 15.384 58.736 15.768C58.96 16.152 59.248 16.344 59.6 16.344H60.2C60.52 16.344 60.776 16.456 60.968 16.68C61.176 16.904 61.28 17.192 61.28 17.544C61.28 17.896 61.128 18.184 60.824 18.408C60.52 18.632 60.128 18.744 59.648 18.744H59.6Z" fill="#23211C"/>
<path d="M51.757 16.7908C50.8745 17.6733 49.8789 18.2616 48.7701 18.5558C47.6501 18.8386 46.53 18.8273 45.41 18.5218C44.2899 18.2163 43.2773 17.6224 42.3722 16.7399C40.3047 14.3555 40.6582 11.8807 40.6582 11.8807C40.6582 11.8807 40.9693 10.1327 41.2522 9.3068C41.535 8.45827 42.0102 7.70025 42.6777 7.03275C43.5036 6.20684 44.454 5.6751 45.5288 5.43751C46.5922 5.18861 47.667 5.23387 48.7532 5.57328C49.8393 5.89006 50.8292 6.49534 51.723 7.38913C52.6168 8.28291 53.2108 9.29549 53.5049 10.4269C53.8104 11.5469 53.8217 12.667 53.5389 13.787C53.2447 14.8958 52.6507 15.897 51.757 16.7908ZM50.2296 15.2635C50.8066 14.6865 51.1856 14.0359 51.3666 13.3119C51.5363 12.5765 51.5081 11.8354 51.2818 11.0887C51.0668 10.3307 50.6595 9.65187 50.0599 9.05224C49.449 8.4413 48.7701 8.03401 48.0234 7.83036C47.288 7.6154 46.5583 7.59843 45.8342 7.77945C45.0988 7.94916 44.4426 8.32251 43.8656 8.89951C43.3 9.46519 42.9266 10.1214 42.7456 10.8681C42.5646 11.5922 42.5815 12.3219 42.7965 13.0573C43.0115 13.7927 43.4244 14.4659 44.0353 15.0768C44.635 15.6764 45.3081 16.0894 46.0548 16.3156C46.8015 16.5419 47.5426 16.5702 48.278 16.4005C49.0134 16.2082 49.6639 15.8292 50.2296 15.2635Z" fill="#23211C"/>
<path d="M30.2944 15.413C30.9184 16.4938 31.7278 17.3197 32.7227 17.8908C33.7314 18.4539 34.8162 18.7329 35.9771 18.7277C37.1381 18.7226 38.2699 18.4109 39.3725 17.7928C41.9867 16.0247 42.2858 13.5427 42.2858 13.5427C42.2858 13.5427 42.4377 11.7738 42.3783 10.9028C42.3247 10.01 42.0619 9.15482 41.5899 8.33729C41.0059 7.32577 40.2255 6.56617 39.2489 6.0585C38.286 5.54283 37.2361 5.30837 36.0992 5.35511C34.9681 5.37999 33.8552 5.70843 32.7605 6.34043C31.6659 6.97243 30.8301 7.79677 30.2531 8.81346C29.6682 9.81629 29.3674 10.8953 29.3507 12.0504C29.3478 13.1974 29.6624 14.3183 30.2944 15.413ZM32.165 14.333C31.757 13.6263 31.5593 12.8998 31.5719 12.1536C31.5983 11.3993 31.8174 10.6908 32.2292 10.0282C32.633 9.3516 33.2022 8.80132 33.9365 8.37732C34.6848 7.94532 35.4459 7.7276 36.2199 7.72415C36.9858 7.70685 37.6951 7.87933 38.3477 8.24158C39.0141 8.59584 39.5513 9.1263 39.9593 9.83298C40.3593 10.5258 40.5501 11.2563 40.5317 12.0244C40.5191 12.7706 40.3138 13.4711 39.9159 14.1258C39.5179 14.7805 38.9448 15.3239 38.1965 15.7559C37.4622 16.1799 36.705 16.4045 35.9252 16.4298C35.1454 16.4551 34.4223 16.2906 33.7559 15.9364C33.0953 15.5603 32.565 15.0258 32.165 14.333Z" fill="#23211C"/>
<path d="M20.784 18.272C19.68 18.272 18.688 18.04 17.808 17.576C16.944 17.096 16.256 16.4 15.744 15.488C15.248 14.576 15 13.456 15 12.128V6.224C15 5.872 15.112 5.584 15.336 5.36C15.576 5.12 15.872 5 16.224 5C16.576 5 16.864 5.12 17.088 5.36C17.328 5.584 17.448 5.872 17.448 6.224V12.128C17.448 13.024 17.616 13.768 17.952 14.36C18.288 14.936 18.744 15.368 19.32 15.656C19.896 15.928 20.544 16.064 21.264 16.064C21.952 16.064 22.56 15.928 23.088 15.656C23.632 15.384 24.064 15.016 24.384 14.552C24.704 14.088 24.864 13.568 24.864 12.992H26.376C26.376 13.984 26.128 14.88 25.632 15.68C25.152 16.48 24.488 17.112 23.64 17.576C22.808 18.04 21.856 18.272 20.784 18.272ZM26.088 18.152C25.736 18.152 25.44 18.04 25.2 17.816C24.976 17.576 24.864 17.28 24.864 16.928V6.224C24.864 5.856 24.976 5.56 25.2 5.336C25.44 5.112 25.736 5 26.088 5C26.456 5 26.752 5.112 26.976 5.336C27.2 5.56 27.312 5.856 27.312 6.224V16.928C27.312 17.28 27.2 17.576 26.976 17.816C26.752 18.04 26.456 18.152 26.088 18.152Z" fill="#23211C"/>
<path d="M1.248 18.744C0.896 18.744 0.6 18.624 0.36 18.384C0.12 18.144 0 17.848 0 17.496V1.248C0 0.88 0.12 0.584 0.36 0.36C0.6 0.12 0.896 0 1.248 0H6.984C8.072 0 9.024 0.216 9.84 0.648C10.672 1.064 11.32 1.648 11.784 2.4C12.264 3.152 12.504 4.016 12.504 4.992C12.504 5.776 12.288 6.488 11.856 7.128C11.44 7.752 10.864 8.248 10.128 8.616C11.184 8.872 12.032 9.376 12.672 10.128C13.312 10.88 13.632 11.864 13.632 13.08C13.632 14.184 13.368 15.16 12.84 16.008C12.328 16.856 11.608 17.528 10.68 18.024C9.752 18.504 8.688 18.744 7.488 18.744H1.248ZM2.496 16.44H7.488C8.224 16.44 8.872 16.312 9.432 16.056C9.992 15.8 10.432 15.424 10.752 14.928C11.072 14.432 11.232 13.816 11.232 13.08C11.232 12.392 11.072 11.824 10.752 11.376C10.432 10.928 9.992 10.592 9.432 10.368C8.872 10.128 8.224 10.008 7.488 10.008H2.496V16.44ZM2.496 7.704H6.984C7.896 7.704 8.64 7.48 9.216 7.032C9.808 6.584 10.104 5.904 10.104 4.992C10.104 4.08 9.808 3.408 9.216 2.976C8.64 2.528 7.896 2.304 6.984 2.304H2.496V7.704Z" fill="#23211C"/>
<circle cx="94.3057" cy="18.957" r="2.5" fill="#23211C"/>
</svg>
