<svg width="1512" height="756" viewBox="0 0 1512 756" fill="none" xmlns="http://www.w3.org/2000/svg">
<g clip-path="url(#clip0_156_79)">
<rect width="1512" height="761" fill="#D6E7CB"/>
<g filter="url(#filter0_dd_156_79)">
<path fill-rule="evenodd" clip-rule="evenodd" d="M755.538 914.756L841.716 914.516L845.464 910.915C897.14 861.265 899.865 778.606 851.574 725.554C800.211 669.128 712.195 669.368 660.809 725.772C612.213 779.113 614.766 862.512 666.799 912.393L669.514 914.996L755.538 914.756ZM755.808 881.177L793.784 881.159C814.747 859.859 814.783 825.288 793.819 803.988C772.855 782.688 738.831 782.724 717.868 804.024C696.904 825.324 696.869 859.895 717.832 881.195L755.808 881.177Z" fill="#D6E7CB"/>
</g>
<g filter="url(#filter1_dd_156_79)">
<path fill-rule="evenodd" clip-rule="evenodd" d="M754.723 939.373L906.888 938.949L913.505 932.591C1004.75 844.926 1009.56 698.975 924.294 605.302C833.603 505.671 678.194 506.094 587.461 605.686C501.656 699.87 506.164 847.127 598.039 935.201L602.832 939.797L754.723 939.373ZM755.2 904.729L836.251 904.691C880.993 859.23 881.069 785.446 836.326 739.985C791.584 694.524 718.966 694.601 674.224 740.062C629.481 785.523 629.406 859.306 674.148 904.767L755.2 904.729Z" fill="#D6E7CB"/>
</g>
<g filter="url(#filter2_dd_156_79)">
<path fill-rule="evenodd" clip-rule="evenodd" d="M754.358 935.724L963.494 935.141L972.588 926.403C1098 805.914 1104.61 605.319 987.417 476.575C862.771 339.641 649.176 340.223 524.473 477.103C406.542 606.549 412.737 808.94 539.01 929.99L545.599 936.306L754.358 935.724ZM755.013 921.304L885.262 921.243C957.163 848.187 957.284 729.617 885.383 656.562C813.482 583.506 696.786 583.629 624.885 656.685C552.984 729.74 552.863 848.31 624.764 921.366L755.013 921.304Z" fill="#D6E7CB"/>
</g>
<g filter="url(#filter3_dd_156_79)">
<path fill-rule="evenodd" clip-rule="evenodd" d="M754.314 931.053L1043.92 930.245L1056.51 918.145C1230.17 751.296 1239.33 473.518 1077.05 295.236C904.442 105.614 608.661 106.419 435.976 295.967C272.668 475.22 281.247 755.486 456.107 923.112L465.23 931.859L754.314 931.053ZM755.222 921.359L941.422 921.272C1044.21 816.833 1044.38 647.329 941.595 542.89C838.807 438.451 671.982 438.627 569.194 543.066C466.406 647.504 466.233 817.009 569.021 921.447L755.222 921.359Z" fill="#D6E7CB"/>
</g>
<g filter="url(#filter4_dd_156_79)">
<path fill-rule="evenodd" clip-rule="evenodd" d="M753.45 952.057L1165.56 950.908L1183.48 933.689C1430.6 696.264 1443.63 300.987 1212.7 47.2933C967.081 -222.538 546.187 -221.392 300.456 48.3328C68.0703 303.41 80.2773 702.226 329.102 940.758L342.085 953.204L753.45 952.057ZM754.74 920.592L1009.67 920.472C1150.39 777.486 1150.63 545.419 1009.9 402.432C869.177 259.446 640.778 259.687 500.051 402.673C359.325 545.659 359.088 777.726 499.815 920.712L754.74 920.592Z" fill="#D6E7CB"/>
</g>
<g filter="url(#filter5_dd_156_79)">
<path fill-rule="evenodd" clip-rule="evenodd" d="M1183.24 913.934L1234.53 913.791L1255.46 893.685C1544.01 616.448 1559.23 154.89 1289.58 -141.344C1002.77 -456.422 511.303 -455.084 224.368 -140.131C-46.985 157.718 -32.7311 623.41 257.817 901.939L272.977 916.472L327.788 916.319C346.058 943.949 367.21 970.193 391.246 994.614L754.826 994.443L1118.41 994.271C1143.03 969.248 1164.64 942.313 1183.24 913.934ZM1183.24 913.934C1316.17 711.031 1294.82 434.341 1118.74 255.434C918.037 51.5044 592.29 51.8475 391.584 255.777C214.913 435.285 193.494 713.234 327.788 916.319L753.321 915.133L1183.24 913.934Z" fill="#D6E7CB"/>
</g>
<g filter="url(#filter6_dd_156_79)">
<path fill-rule="evenodd" clip-rule="evenodd" d="M1306.02 836.049L1372.06 835.864L1399.01 809.978C1770.51 453.042 1790.1 -141.204 1442.93 -522.599C1073.68 -928.254 440.922 -926.531 71.4988 -521.036C-277.862 -137.562 -259.51 462.005 114.565 820.606L134.083 839.317L204.649 839.12C228.171 874.693 255.405 908.481 286.351 939.924L754.452 939.703L1222.55 939.482C1254.26 907.266 1282.08 872.586 1306.02 836.049ZM1306.02 836.049C1477.17 574.815 1449.69 218.584 1222.99 -11.7542C964.583 -274.309 545.191 -273.867 286.786 -11.3124C59.3266 219.799 31.7498 577.652 204.649 839.12L752.515 837.592L1306.02 836.049Z" fill="#D6E7CB"/>
</g>
<rect opacity="0.6" width="1512" height="820" fill="#D6E7CB"/>
</g>
<defs>
<filter id="filter0_dd_156_79" x="602" y="663.352" width="308.08" height="283.644" filterUnits="userSpaceOnUse" color-interpolation-filters="sRGB">
<feFlood flood-opacity="0" result="BackgroundImageFix"/>
<feColorMatrix in="SourceAlpha" type="matrix" values="0 0 0 0 0 0 0 0 0 0 0 0 0 0 0 0 0 0 127 0" result="hardAlpha"/>
<feOffset dy="4"/>
<feGaussianBlur stdDeviation="12"/>
<feColorMatrix type="matrix" values="0 0 0 0 0.382545 0 0 0 0 0.435417 0 0 0 0 0.348333 0 0 0 0.1 0"/>
<feBlend mode="normal" in2="BackgroundImageFix" result="effect1_dropShadow_156_79"/>
<feColorMatrix in="SourceAlpha" type="matrix" values="0 0 0 0 0 0 0 0 0 0 0 0 0 0 0 0 0 0 127 0" result="hardAlpha"/>
<feOffset dy="8"/>
<feGaussianBlur stdDeviation="12"/>
<feColorMatrix type="matrix" values="0 0 0 0 0.384314 0 0 0 0 0.435294 0 0 0 0 0.34902 0 0 0 0.1 0"/>
<feBlend mode="normal" in2="effect1_dropShadow_156_79" result="effect2_dropShadow_156_79"/>
<feBlend mode="normal" in="SourceGraphic" in2="effect2_dropShadow_156_79" result="shape"/>
</filter>
<filter id="filter1_dd_156_79" x="502" y="510.785" width="507.221" height="461.012" filterUnits="userSpaceOnUse" color-interpolation-filters="sRGB">
<feFlood flood-opacity="0" result="BackgroundImageFix"/>
<feColorMatrix in="SourceAlpha" type="matrix" values="0 0 0 0 0 0 0 0 0 0 0 0 0 0 0 0 0 0 127 0" result="hardAlpha"/>
<feOffset dy="4"/>
<feGaussianBlur stdDeviation="12"/>
<feColorMatrix type="matrix" values="0 0 0 0 0.382545 0 0 0 0 0.435417 0 0 0 0 0.348333 0 0 0 0.1 0"/>
<feBlend mode="normal" in2="BackgroundImageFix" result="effect1_dropShadow_156_79"/>
<feColorMatrix in="SourceAlpha" type="matrix" values="0 0 0 0 0 0 0 0 0 0 0 0 0 0 0 0 0 0 127 0" result="hardAlpha"/>
<feOffset dy="8"/>
<feGaussianBlur stdDeviation="12"/>
<feColorMatrix type="matrix" values="0 0 0 0 0.384314 0 0 0 0 0.435294 0 0 0 0 0.34902 0 0 0 0.1 0"/>
<feBlend mode="normal" in2="effect1_dropShadow_156_79" result="effect2_dropShadow_156_79"/>
<feBlend mode="normal" in="SourceGraphic" in2="effect2_dropShadow_156_79" result="shape"/>
</filter>
<filter id="filter2_dd_156_79" x="416" y="354.158" width="679.155" height="614.147" filterUnits="userSpaceOnUse" color-interpolation-filters="sRGB">
<feFlood flood-opacity="0" result="BackgroundImageFix"/>
<feColorMatrix in="SourceAlpha" type="matrix" values="0 0 0 0 0 0 0 0 0 0 0 0 0 0 0 0 0 0 127 0" result="hardAlpha"/>
<feOffset dy="4"/>
<feGaussianBlur stdDeviation="12"/>
<feColorMatrix type="matrix" values="0 0 0 0 0.382545 0 0 0 0 0.435417 0 0 0 0 0.348333 0 0 0 0.1 0"/>
<feBlend mode="normal" in2="BackgroundImageFix" result="effect1_dropShadow_156_79"/>
<feColorMatrix in="SourceAlpha" type="matrix" values="0 0 0 0 0 0 0 0 0 0 0 0 0 0 0 0 0 0 127 0" result="hardAlpha"/>
<feOffset dy="8"/>
<feGaussianBlur stdDeviation="12"/>
<feColorMatrix type="matrix" values="0 0 0 0 0.384314 0 0 0 0 0.435294 0 0 0 0 0.34902 0 0 0 0.1 0"/>
<feBlend mode="normal" in2="effect1_dropShadow_156_79" result="effect2_dropShadow_156_79"/>
<feBlend mode="normal" in="SourceGraphic" in2="effect2_dropShadow_156_79" result="shape"/>
</filter>
<filter id="filter3_dd_156_79" x="295" y="133.412" width="922.006" height="830.447" filterUnits="userSpaceOnUse" color-interpolation-filters="sRGB">
<feFlood flood-opacity="0" result="BackgroundImageFix"/>
<feColorMatrix in="SourceAlpha" type="matrix" values="0 0 0 0 0 0 0 0 0 0 0 0 0 0 0 0 0 0 127 0" result="hardAlpha"/>
<feOffset dy="4"/>
<feGaussianBlur stdDeviation="12"/>
<feColorMatrix type="matrix" values="0 0 0 0 0.382545 0 0 0 0 0.435417 0 0 0 0 0.348333 0 0 0 0.1 0"/>
<feBlend mode="normal" in2="BackgroundImageFix" result="effect1_dropShadow_156_79"/>
<feColorMatrix in="SourceAlpha" type="matrix" values="0 0 0 0 0 0 0 0 0 0 0 0 0 0 0 0 0 0 127 0" result="hardAlpha"/>
<feOffset dy="8"/>
<feGaussianBlur stdDeviation="12"/>
<feColorMatrix type="matrix" values="0 0 0 0 0.384314 0 0 0 0 0.435294 0 0 0 0 0.34902 0 0 0 0.1 0"/>
<feBlend mode="normal" in2="effect1_dropShadow_156_79" result="effect2_dropShadow_156_79"/>
<feBlend mode="normal" in="SourceGraphic" in2="effect2_dropShadow_156_79" result="shape"/>
</filter>
<filter id="filter4_dd_156_79" x="110" y="-174.521" width="1291.71" height="1159.73" filterUnits="userSpaceOnUse" color-interpolation-filters="sRGB">
<feFlood flood-opacity="0" result="BackgroundImageFix"/>
<feColorMatrix in="SourceAlpha" type="matrix" values="0 0 0 0 0 0 0 0 0 0 0 0 0 0 0 0 0 0 127 0" result="hardAlpha"/>
<feOffset dy="4"/>
<feGaussianBlur stdDeviation="12"/>
<feColorMatrix type="matrix" values="0 0 0 0 0.382545 0 0 0 0 0.435417 0 0 0 0 0.348333 0 0 0 0.1 0"/>
<feBlend mode="normal" in2="BackgroundImageFix" result="effect1_dropShadow_156_79"/>
<feColorMatrix in="SourceAlpha" type="matrix" values="0 0 0 0 0 0 0 0 0 0 0 0 0 0 0 0 0 0 127 0" result="hardAlpha"/>
<feOffset dy="8"/>
<feGaussianBlur stdDeviation="12"/>
<feColorMatrix type="matrix" values="0 0 0 0 0.384314 0 0 0 0 0.435294 0 0 0 0 0.34902 0 0 0 0.1 0"/>
<feBlend mode="normal" in2="effect1_dropShadow_156_79" result="effect2_dropShadow_156_79"/>
<feBlend mode="normal" in="SourceGraphic" in2="effect2_dropShadow_156_79" result="shape"/>
</filter>
<filter id="filter5_dd_156_79" x="6" y="-397" width="1500.25" height="1423.61" filterUnits="userSpaceOnUse" color-interpolation-filters="sRGB">
<feFlood flood-opacity="0" result="BackgroundImageFix"/>
<feColorMatrix in="SourceAlpha" type="matrix" values="0 0 0 0 0 0 0 0 0 0 0 0 0 0 0 0 0 0 127 0" result="hardAlpha"/>
<feOffset dy="4"/>
<feGaussianBlur stdDeviation="12"/>
<feColorMatrix type="matrix" values="0 0 0 0 0.382545 0 0 0 0 0.435417 0 0 0 0 0.348333 0 0 0 0.1 0"/>
<feBlend mode="normal" in2="BackgroundImageFix" result="effect1_dropShadow_156_79"/>
<feColorMatrix in="SourceAlpha" type="matrix" values="0 0 0 0 0 0 0 0 0 0 0 0 0 0 0 0 0 0 127 0" result="hardAlpha"/>
<feOffset dy="8"/>
<feGaussianBlur stdDeviation="12"/>
<feColorMatrix type="matrix" values="0 0 0 0 0.384314 0 0 0 0 0.435294 0 0 0 0 0.34902 0 0 0 0.1 0"/>
<feBlend mode="normal" in2="effect1_dropShadow_156_79" result="effect2_dropShadow_156_79"/>
<feBlend mode="normal" in="SourceGraphic" in2="effect2_dropShadow_156_79" result="shape"/>
</filter>
<filter id="filter6_dd_156_79" x="-202.745" y="-846" width="1917.75" height="1817.92" filterUnits="userSpaceOnUse" color-interpolation-filters="sRGB">
<feFlood flood-opacity="0" result="BackgroundImageFix"/>
<feColorMatrix in="SourceAlpha" type="matrix" values="0 0 0 0 0 0 0 0 0 0 0 0 0 0 0 0 0 0 127 0" result="hardAlpha"/>
<feOffset dy="4"/>
<feGaussianBlur stdDeviation="12"/>
<feColorMatrix type="matrix" values="0 0 0 0 0.382545 0 0 0 0 0.435417 0 0 0 0 0.348333 0 0 0 0.1 0"/>
<feBlend mode="normal" in2="BackgroundImageFix" result="effect1_dropShadow_156_79"/>
<feColorMatrix in="SourceAlpha" type="matrix" values="0 0 0 0 0 0 0 0 0 0 0 0 0 0 0 0 0 0 127 0" result="hardAlpha"/>
<feOffset dy="8"/>
<feGaussianBlur stdDeviation="12"/>
<feColorMatrix type="matrix" values="0 0 0 0 0.384314 0 0 0 0 0.435294 0 0 0 0 0.34902 0 0 0 0.1 0"/>
<feBlend mode="normal" in2="effect1_dropShadow_156_79" result="effect2_dropShadow_156_79"/>
<feBlend mode="normal" in="SourceGraphic" in2="effect2_dropShadow_156_79" result="shape"/>
</filter>
<clipPath id="clip0_156_79">
<rect width="1512" height="761" fill="white"/>
</clipPath>
</defs>
</svg>
