<svg width="334" height="347" viewBox="0 0 334 347" fill="none" xmlns="http://www.w3.org/2000/svg">
<g filter="url(#filter0_d_14_33958)">
<circle cx="153.5" cy="166.5" r="142.5" fill="url(#paint0_linear_14_33958)" shape-rendering="crispEdges"/>
<circle cx="153.5" cy="166.5" r="142.5" fill="url(#paint1_radial_14_33958)" fill-opacity="0.3" shape-rendering="crispEdges"/>
</g>
<g filter="url(#filter1_f_14_33958)">
<path fill-rule="evenodd" clip-rule="evenodd" d="M125.486 58.57C134.142 62.1316 139.3 72.3118 138.908 84.9204C138.541 96.7376 131.305 109.479 123.559 120.514C116.95 129.928 108.492 135.274 99.9094 140.476C90.2018 146.359 79.8 154.553 71.6664 151.962C62.781 149.131 58.0695 138.909 57.4166 126.936C56.7601 114.898 60.3703 100.624 68.2124 88.6189C75.5538 77.3807 86.2617 72.6673 96.3127 67.3939C106.487 62.056 117.337 55.2171 125.486 58.57Z" fill="white"/>
</g>
<defs>
<filter id="filter0_d_14_33958" x="11" y="24" width="323" height="323" filterUnits="userSpaceOnUse" color-interpolation-filters="sRGB">
<feFlood flood-opacity="0" result="BackgroundImageFix"/>
<feColorMatrix in="SourceAlpha" type="matrix" values="0 0 0 0 0 0 0 0 0 0 0 0 0 0 0 0 0 0 127 0" result="hardAlpha"/>
<feOffset dx="19" dy="19"/>
<feGaussianBlur stdDeviation="9.5"/>
<feComposite in2="hardAlpha" operator="out"/>
<feColorMatrix type="matrix" values="0 0 0 0 0.987847 0 0 0 0 1 0 0 0 0 0.970833 0 0 0 0.12 0"/>
<feBlend mode="normal" in2="BackgroundImageFix" result="effect1_dropShadow_14_33958"/>
<feBlend mode="normal" in="SourceGraphic" in2="effect1_dropShadow_14_33958" result="shape"/>
</filter>
<filter id="filter1_f_14_33958" x="0.340813" y="0.681633" width="195.588" height="208.773" filterUnits="userSpaceOnUse" color-interpolation-filters="sRGB">
<feFlood flood-opacity="0" result="BackgroundImageFix"/>
<feBlend mode="normal" in="SourceGraphic" in2="BackgroundImageFix" result="shape"/>
<feGaussianBlur stdDeviation="28.5" result="effect1_foregroundBlur_14_33958"/>
</filter>
<linearGradient id="paint0_linear_14_33958" x1="296" y1="24" x2="11" y2="339.4" gradientUnits="userSpaceOnUse">
<stop stop-color="#04FE00"/>
<stop offset="1" stop-color="#54FF9E" stop-opacity="0"/>
</linearGradient>
<radialGradient id="paint1_radial_14_33958" cx="0" cy="0" r="1" gradientUnits="userSpaceOnUse" gradientTransform="translate(125.95 66.75) rotate(150.046) scale(64.6907)">
<stop stop-color="white"/>
<stop offset="1" stop-color="#FFDDDD"/>
</radialGradient>
</defs>
</svg>
