<svg width="81" height="81" viewBox="0 0 81 81" fill="none" xmlns="http://www.w3.org/2000/svg">
<path d="M45.3472 24.7883C46.9243 18.2946 55.1524 14.847 59.8777 19.5722C64.755 24.4496 60.9067 32.9158 54.1136 34.1119C42.7221 36.1176 37.024 41.981 34.7623 53.9592C33.4181 61.0785 24.578 64.8827 19.4549 59.7597C14.5357 54.8404 17.8138 46.3934 24.5717 44.7412C36.1588 41.9082 42.5753 36.2016 45.3472 24.7883Z" fill="#D6E7CB"/>
<path d="M24.7886 35.2629C18.2949 33.6858 14.8473 25.4577 19.5725 20.7324C24.4499 15.8551 32.9161 19.7034 34.1121 26.4965C36.1178 37.888 41.9812 43.5861 53.9595 45.8478C61.0787 47.192 64.883 56.0321 59.7599 61.1552C54.8407 66.0744 46.3937 62.7963 44.7414 56.0384C41.9085 44.4513 36.2018 38.0348 24.7886 35.2629Z" fill="#D6E7CB"/>
</svg>
